<svg data-v-423bf9ae="" xmlns="http://www.w3.org/2000/svg" viewBox="0 0 217.81744077201222 185" class="iconAbove"><!----><!----><!----><g data-v-423bf9ae="" id="c4a6870e-6d99-4c7e-b49f-2dda8e996c9c" fill="white" transform="matrix(1.5298316708957087,0,0,1.5298316708957087,0.0000015378220155071176,139.0886328484044)"><path d="M2.84 7.53L2.84 7.53L2.84 7.53Q2.83 7.57 2.91 7.62L2.91 7.62L2.91 7.62Q2.98 7.64 3.16 7.67L3.16 7.67L3.16 7.67Q3.33 7.70 3.70 7.70L3.70 7.70L3.70 7.70Q4.59 7.70 5.12 7.35L5.12 7.35L5.12 7.35Q5.64 7 5.92 6.47L5.92 6.47L5.92 6.47Q6.20 5.94 6.29 5.29L6.29 5.29L6.29 5.29Q6.37 4.63 6.37 4.05L6.37 4.05L6.37 4.05Q6.37 3.07 6.13 2.35L6.13 2.35L6.13 2.35Q5.89 1.64 5.52 1.18L5.52 1.18L5.52 1.18Q5.15 0.73 4.72 0.51L4.72 0.51L4.72 0.51Q4.28 0.29 3.91 0.29L3.91 0.29L3.91 0.29Q3.57 0.29 3.39 0.35L3.39 0.35L3.39 0.35Q3.21 0.41 3.11 0.48L3.11 0.48L3.11 0.48Q3.00 0.55 2.98 0.64L2.98 0.64L2.98 0.64Q2.93 1.47 2.90 2.37L2.90 2.37L2.90 2.37Q2.87 3.26 2.86 4.15L2.86 4.15L2.86 4.15Q2.84 5.04 2.84 5.90L2.84 5.90L2.84 5.90Q2.84 6.76 2.84 7.53ZM1.48 6.57L1.48 6.57L1.48 6.57Q1.48 5.95 1.46 5.26L1.46 5.26L1.46 5.26Q1.43 4.56 1.39 3.87L1.39 3.87L1.39 3.87Q1.34 3.18 1.29 2.53L1.29 2.53L1.29 2.53Q1.23 1.89 1.16 1.40L1.16 1.40L1.16 1.40Q1.09 0.91 1.02 0.61L1.02 0.61L1.02 0.61Q0.95 0.31 0.90 0.29L0.90 0.29L0.90 0.29Q0.76 0.27 0.61 0.24L0.61 0.24L0.61 0.24Q0.46 0.22 0.32 0.20L0.32 0.20L0.32 0.20Q0.17 0.17 0 0.14L0 0.14L0 0.01L0 0.01Q0.25 0.06 0.55 0.08L0.55 0.08L0.55 0.08Q0.80 0.11 1.13 0.13L1.13 0.13L1.13 0.13Q1.46 0.14 1.82 0.14L1.82 0.14L1.82 0.14Q2.17 0.14 2.46 0.12L2.46 0.12L2.46 0.12Q2.74 0.10 3.05 0.08L3.05 0.08L3.05 0.08Q3.36 0.06 3.75 0.04L3.75 0.04L3.75 0.04Q4.13 0.01 4.68 0.01L4.68 0.01L4.68 0.01Q5.53 0.01 6.22 0.34L6.22 0.34L6.22 0.34Q6.90 0.67 7.38 1.20L7.38 1.20L7.38 1.20Q7.87 1.72 8.12 2.36L8.12 2.36L8.12 2.36Q8.37 3.00 8.37 3.63L8.37 3.63L8.37 3.63Q8.37 4.21 8.23 4.70L8.23 4.70L8.23 4.70Q8.09 5.18 7.87 5.56L7.87 5.56L7.87 5.56Q7.64 5.95 7.35 6.25L7.35 6.25L7.35 6.25Q7.06 6.55 6.76 6.78L6.76 6.78L6.76 6.78Q6.05 7.31 5.15 7.57L5.15 7.57L5.15 7.57Q5.89 7.57 6.45 8.04L6.45 8.04L6.45 8.04Q7 8.50 7.43 9.19L7.43 9.19L7.43 9.19Q7.87 9.88 8.24 10.70L8.24 10.70L8.24 10.70Q8.61 11.52 8.98 12.24L8.98 12.24L8.98 12.24Q9.35 12.95 9.78 13.45L9.78 13.45L9.78 13.45Q10.21 13.94 10.78 14L10.78 14L10.78 14Q9.87 14 9.23 13.87L9.23 13.87L9.23 13.87Q8.60 13.73 8.15 13.49L8.15 13.49L8.15 13.49Q7.71 13.24 7.41 12.90L7.41 12.90L7.41 12.90Q7.11 12.56 6.87 12.14L6.87 12.14L6.87 12.14Q6.64 11.73 6.41 11.26L6.41 11.26L6.41 11.26Q6.19 10.79 5.88 10.29L5.88 10.29L5.88 10.29Q5.39 9.48 5.11 8.99L5.11 8.99L5.11 8.99Q4.83 8.50 4.56 8.25L4.56 8.25L4.56 8.25Q4.28 7.99 3.91 7.92L3.91 7.92L3.91 7.92Q3.53 7.84 2.84 7.84L2.84 7.84L2.84 7.84Q2.84 8.72 2.91 9.76L2.91 9.76L2.91 9.76Q2.98 10.79 3.07 11.68L3.07 11.68L3.07 11.68Q3.16 12.71 3.30 13.73L3.30 13.73L4.26 13.86L4.26 14L3.70 13.93L3.70 13.93Q3.44 13.90 3.10 13.88L3.10 13.88L3.10 13.88Q2.76 13.86 2.38 13.86L2.38 13.86L2.38 13.86Q1.88 13.86 1.50 13.88L1.50 13.88L1.50 13.88Q1.12 13.90 0.87 13.93L0.87 13.93L0.87 13.93Q0.57 13.97 0.38 14L0.38 14L0.38 13.90L0.38 13.90Q0.50 13.87 0.64 13.85L0.64 13.85L0.64 13.85Q0.76 13.82 0.90 13.79L0.90 13.79L0.90 13.79Q1.04 13.76 1.19 13.73L1.19 13.73L1.19 13.73Q1.41 13.71 1.45 11.97L1.45 11.97L1.45 11.97Q1.48 10.23 1.48 6.57ZM15.47 12.49L15.47 12.49L15.47 12.49Q15.88 12.49 16.23 12.38L16.23 12.38L16.23 12.38Q16.59 12.28 16.86 12.14L16.86 12.14L16.86 12.14Q17.16 11.98 17.43 11.79L17.43 11.79L17.43 11.79Q17.05 12.42 16.52 12.91L16.52 12.91L16.52 12.91Q16.07 13.33 15.39 13.67L15.39 13.67L15.39 13.67Q14.71 14.01 13.82 14.01L13.82 14.01L13.82 14.01Q13.17 14.01 12.59 13.79L12.59 13.79L12.59 13.79Q12.00 13.57 11.54 13.15L11.54 13.15L11.54 13.15Q11.09 12.73 10.82 12.12L10.82 12.12L10.82 12.12Q10.56 11.51 10.56 10.75L10.56 10.75L10.56 10.75Q10.56 10.07 10.77 9.54L10.77 9.54L10.77 9.54Q10.99 9.02 11.34 8.62L11.34 8.62L11.34 8.62Q11.69 8.23 12.12 7.97L12.12 7.97L12.12 7.97Q12.56 7.71 12.98 7.55L12.98 7.55L12.98 7.55Q14.32 7 14.81 7L14.81 7L14.81 7Q15.33 7 15.71 7.17L15.71 7.17L15.71 7.17Q16.10 7.35 16.38 7.56L16.38 7.56L16.38 7.56Q16.69 7.81 16.93 8.12L16.93 8.12L12.31 9.98L12.31 9.98Q12.40 10.57 12.59 11.03L12.59 11.03L12.59 11.03Q12.77 11.49 13.12 11.82L13.12 11.82L13.12 11.82Q13.47 12.14 14.03 12.31L14.03 12.31L14.03 12.31Q14.59 12.49 15.47 12.49ZM13.20 7.81L13.20 7.81L13.20 7.81Q13.01 7.81 12.82 7.92L12.82 7.92L12.82 7.92Q12.64 8.02 12.50 8.19L12.50 8.19L12.50 8.19Q12.35 8.36 12.27 8.57L12.27 8.57L12.27 8.57Q12.19 8.78 12.21 8.99L12.21 8.99L12.21 8.99Q12.21 9.21 12.22 9.42L12.22 9.42L12.22 9.42Q12.22 9.63 12.26 9.84L12.26 9.84L14.62 8.76L14.62 8.76Q14.48 8.50 14.27 8.29L14.27 8.29L14.27 8.29Q14.08 8.11 13.82 7.96L13.82 7.96L13.82 7.96Q13.55 7.81 13.20 7.81ZM21.41 10.86L21.41 10.86L21.41 10.86Q21.14 10.86 20.76 10.81L20.76 10.81L20.76 10.81Q20.37 10.75 20.01 10.58L20.01 10.58L20.01 10.58Q19.66 10.40 19.40 10.08L19.40 10.08L19.40 10.08Q19.15 9.76 19.15 9.23L19.15 9.23L19.15 9.23Q19.15 8.81 19.37 8.48L19.37 8.48L19.37 8.48Q19.59 8.15 19.92 7.90L19.92 7.90L19.92 7.90Q20.26 7.64 20.68 7.48L20.68 7.48L20.68 7.48Q21.10 7.31 21.49 7.20L21.49 7.20L21.49 7.20Q21.88 7.08 22.21 7.04L22.21 7.04L22.21 7.04Q22.54 6.99 22.71 6.99L22.71 6.99L22.71 6.99Q22.83 6.99 23.02 6.99L23.02 6.99L23.02 6.99Q23.21 7 23.40 7.02L23.40 7.02L23.40 7.02Q23.59 7.04 23.77 7.06L23.77 7.06L23.77 7.06Q23.94 7.08 24.02 7.13L24.02 7.13L24.02 7.13Q23.97 7.31 23.91 7.54L23.91 7.54L23.91 7.54Q23.84 7.77 23.79 8.02L23.79 8.02L23.79 8.02Q23.73 8.26 23.70 8.50L23.70 8.50L23.70 8.50Q23.66 8.75 23.66 8.96L23.66 8.96L23.66 8.96Q23.56 8.75 23.39 8.50L23.39 8.50L23.39 8.50Q23.23 8.26 23.00 8.04L23.00 8.04L23.00 8.04Q22.76 7.83 22.47 7.69L22.47 7.69L22.47 7.69Q22.18 7.55 21.83 7.55L21.83 7.55L21.83 7.55Q21.56 7.55 21.36 7.63L21.36 7.63L21.36 7.63Q21.15 7.71 21.01 7.85L21.01 7.85L21.01 7.85Q20.86 7.99 20.78 8.16L20.78 8.16L20.78 8.16Q20.71 8.32 20.71 8.47L20.71 8.47L20.71 8.47Q20.71 8.79 20.86 9.04L20.86 9.04L20.86 9.04Q21.01 9.28 21.27 9.45L21.27 9.45L21.27 9.45Q21.52 9.62 21.85 9.70L21.85 9.70L21.85 9.70Q22.18 9.79 22.53 9.79L22.53 9.79L22.53 9.79Q23.10 9.79 23.51 9.90L23.51 9.90L23.51 9.90Q23.93 10.01 24.19 10.19L24.19 10.19L24.19 10.19Q24.44 10.37 24.56 10.61L24.56 10.61L24.56 10.61Q24.68 10.84 24.68 11.06L24.68 11.06L24.68 11.06Q24.68 11.80 24.27 12.36L24.27 12.36L24.27 12.36Q23.86 12.91 23.26 13.27L23.26 13.27L23.26 13.27Q22.67 13.64 22.02 13.82L22.02 13.82L22.02 13.82Q21.36 14 20.89 14L20.89 14L20.89 14Q20.17 14 19.61 13.82L19.61 13.82L19.61 13.82Q19.05 13.64 18.83 13.44L18.83 13.44L18.83 13.44Q18.98 13.20 19.10 12.77L19.10 12.77L19.10 12.77Q19.21 12.33 19.25 11.76L19.25 11.76L19.25 11.76Q19.43 12.11 19.74 12.40L19.74 12.40L19.74 12.40Q20.05 12.68 20.43 12.88L20.43 12.88L20.43 12.88Q20.80 13.08 21.23 13.19L21.23 13.19L21.23 13.19Q21.66 13.30 22.11 13.30L22.11 13.30L22.11 13.30Q22.26 13.30 22.46 13.26L22.46 13.26L22.46 13.26Q22.65 13.22 22.82 13.12L22.82 13.12L22.82 13.12Q22.99 13.02 23.11 12.85L23.11 12.85L23.11 12.85Q23.23 12.68 23.23 12.42L23.23 12.42L23.23 12.42Q23.23 12.17 23.10 11.89L23.10 11.89L23.10 11.89Q22.97 11.62 22.74 11.39L22.74 11.39L22.74 11.39Q22.50 11.16 22.16 11.01L22.16 11.01L22.16 11.01Q21.83 10.86 21.41 10.86ZM27.44-0.03L27.44-0.03L27.44-0.03Q27.44-3.22 27.38-4.93L27.38-4.93L27.38-4.93Q27.33-6.65 27.16-7.01L27.16-7.01L27.16-7.01Q27.58-7.01 28.02-7.22L28.02-7.22L28.02-7.22Q28.46-7.42 28.92-7.73L28.92-7.73L28.92-7.73Q29.39-8.04 29.88-8.40L29.88-8.40L29.88-8.40Q30.37-8.76 30.88-9.07L30.88-9.07L30.88-9.07Q31.39-9.38 31.94-9.58L31.94-9.58L31.94-9.58Q32.49-9.79 33.08-9.79L33.08-9.79L33.08-9.79Q33.87-9.79 34.40-9.55L34.40-9.55L34.40-9.55Q34.93-9.32 35.25-8.93L35.25-8.93L35.25-8.93Q35.57-8.54 35.71-8.04L35.71-8.04L35.71-8.04Q35.84-7.55 35.84-7.01L35.84-7.01L35.84-7.01Q35.84-5.70 35.42-4.59L35.42-4.59L35.42-4.59Q35-3.47 34.31-2.54L34.31-2.54L34.31-2.54Q33.63-1.61 32.75-0.85L32.75-0.85L32.75-0.85Q31.86-0.10 30.95 0.49L30.95 0.49L30.95 0.49Q28.81 1.88 26.08 2.74L26.08 2.74L26.08 2.74Q28.77 1.88 30.88 0.49L30.88 0.49L30.88 0.49Q31.78-0.10 32.65-0.85L32.65-0.85L32.65-0.85Q33.52-1.61 34.20-2.54L34.20-2.54L34.20-2.54Q34.87-3.47 35.29-4.59L35.29-4.59L35.29-4.59Q35.70-5.70 35.70-7.01L35.70-7.01L35.70-7.01Q35.70-7.55 35.57-8.02L35.57-8.02L35.57-8.02Q35.45-8.50 35.15-8.86L35.15-8.86L35.15-8.86Q34.85-9.23 34.34-9.44L34.34-9.44L34.34-9.44Q33.84-9.65 33.08-9.65L33.08-9.65L33.08-9.65Q32.26-9.65 31.60-9.33L31.60-9.33L31.60-9.33Q30.94-9.02 30.46-8.57L30.46-8.57L30.46-8.57Q29.97-8.13 29.67-7.66L29.67-7.66L29.67-7.66Q29.37-7.20 29.27-6.87L29.27-6.87L29.27-6.87Q29.12-6.40 29.04-5.85L29.04-5.85L29.04-5.85Q28.95-5.31 28.91-4.53L28.91-4.53L28.91-4.53Q28.87-3.75 28.86-2.65L28.86-2.65L28.86-2.65Q28.85-1.55 28.85 0.03L28.85 0.03L28.85 0.03Q28.85 0.71 28.85 1.48L28.85 1.48L28.85 1.48Q28.85 2.25 28.86 3.03L28.86 3.03L28.86 3.03Q28.87 3.81 28.88 4.52L28.88 4.52L28.88 4.52Q28.88 5.24 28.89 5.80L28.89 5.80L28.89 5.80Q28.90 6.36 28.90 6.71L28.90 6.71L28.90 6.71Q28.90 7.06 28.90 7.08L28.90 7.08L28.90 7.08Q29.15 7.17 29.44 7.20L29.44 7.20L29.44 7.20Q29.72 7.24 30.00 7.24L30.00 7.24L30.00 7.24Q30.28 7.24 30.53 7.22L30.53 7.22L30.53 7.22Q30.79 7.20 30.95 7.18L30.95 7.18L30.95 7.18Q30.79 7.38 30.51 7.51L30.51 7.51L30.51 7.51Q30.24 7.64 29.94 7.74L29.94 7.74L29.94 7.74Q29.64 7.84 29.35 7.90L29.35 7.90L29.35 7.90Q29.06 7.97 28.85 8.02L28.85 8.02L28.85 8.02Q28.88 8.54 28.84 9.06L28.84 9.06L28.84 9.06Q28.80 9.59 28.80 10.08L28.80 10.08L28.80 10.08Q28.80 10.57 28.88 11.00L28.88 11.00L28.88 11.00Q28.97 11.44 29.23 11.77L29.23 11.77L29.23 11.77Q29.48 12.11 29.97 12.33L29.97 12.33L29.97 12.33Q30.45 12.54 31.25 12.59L31.25 12.59L31.25 12.59Q31.04 12.77 30.81 13.01L30.81 13.01L30.81 13.01Q30.58 13.24 30.32 13.45L30.32 13.45L30.32 13.45Q30.07 13.66 29.81 13.81L29.81 13.81L29.81 13.81Q29.54 13.96 29.26 13.96L29.26 13.96L29.26 13.96Q28.97 13.96 28.67 13.84L28.67 13.84L28.67 13.84Q28.38 13.72 28.15 13.48L28.15 13.48L28.15 13.48Q27.92 13.24 27.76 12.91L27.76 12.91L27.76 12.91Q27.61 12.57 27.59 12.12L27.59 12.12L27.59 12.12Q27.55 10.99 27.52 9.93L27.52 9.93L27.52 9.93Q27.50 8.86 27.50 7.98L27.50 7.98L27.50 7.98Q27.13 7.95 26.89 7.92L26.89 7.92L26.89 7.92Q26.64 7.90 26.49 7.87L26.49 7.87L26.49 7.87Q26.31 7.83 26.18 7.78L26.18 7.78L26.18 7.78Q26.36 7.71 26.57 7.62L26.57 7.62L26.57 7.62Q26.75 7.53 26.96 7.41L26.96 7.41L26.96 7.41Q27.17 7.29 27.38 7.13L27.38 7.13L27.38 7.13Q27.40 7.07 27.41 6.71L27.41 6.71L27.41 6.71Q27.41 6.36 27.42 5.79L27.42 5.79L27.42 5.79Q27.43 5.22 27.43 4.50L27.43 4.50L27.43 4.50Q27.44 3.78 27.44 3.00L27.44 3.00L27.44 3.00Q27.44 2.23 27.44 1.45L27.44 1.45L27.44 1.45Q27.44 0.67 27.44-0.03ZM38.53 9.52L38.53 9.52L38.53 9.52Q38.64 9.79 38.85 10.30L38.85 10.30L38.85 10.30Q39.06 10.82 39.29 11.35L39.29 11.35L39.29 11.35Q39.52 11.89 39.75 12.29L39.75 12.29L39.75 12.29Q39.97 12.70 40.12 12.73L40.12 12.73L40.12 12.73Q39.70 12.96 39.25 13.30L39.25 13.30L39.25 13.30Q38.79 13.64 38.46 14L38.46 14L38.46 14Q38.39 13.69 38.21 13.14L38.21 13.14L38.21 13.14Q38.02 12.59 37.72 11.93L37.72 11.93L37.72 11.93Q37.45 12.19 37.04 12.55L37.04 12.55L37.04 12.55Q36.64 12.91 36.18 13.23L36.18 13.23L36.18 13.23Q35.71 13.55 35.22 13.78L35.22 13.78L35.22 13.78Q34.72 14 34.27 14L34.27 14L34.27 14Q33.95 14 33.61 13.91L33.61 13.91L33.61 13.91Q33.26 13.82 32.98 13.64L32.98 13.64L32.98 13.64Q32.70 13.47 32.53 13.22L32.53 13.22L32.53 13.22Q32.35 12.96 32.35 12.64L32.35 12.64L32.35 12.64Q32.35 12.25 32.76 11.80L32.76 11.80L32.76 11.80Q33.17 11.35 33.77 10.91L33.77 10.91L33.77 10.91Q34.37 10.47 35.07 10.05L35.07 10.05L35.07 10.05Q35.77 9.63 36.36 9.27L36.36 9.27L36.36 9.27Q35.92 8.72 35.54 8.48L35.54 8.48L35.54 8.48Q35.15 8.23 34.69 8.23L34.69 8.23L34.69 8.23Q34.50 8.23 34.18 8.34L34.18 8.34L34.18 8.34Q33.87 8.46 33.57 8.60L33.57 8.60L33.57 8.60Q33.21 8.75 32.84 8.95L32.84 8.95L32.84 8.95Q33.63 8.41 34.36 7.98L34.36 7.98L34.36 7.98Q34.66 7.80 34.99 7.63L34.99 7.63L34.99 7.63Q35.31 7.46 35.61 7.32L35.61 7.32L35.61 7.32Q35.91 7.18 36.17 7.10L36.17 7.10L36.17 7.10Q36.43 7.01 36.61 7.01L36.61 7.01L36.61 7.01Q36.96 7.01 37.26 7.31L37.26 7.31L37.26 7.31Q37.56 7.62 37.81 8.03L37.81 8.03L37.81 8.03Q38.05 8.44 38.23 8.86L38.23 8.86L38.23 8.86Q38.40 9.28 38.53 9.52ZM35.78 12.64L35.78 12.64L35.78 12.64Q36.12 12.64 36.43 12.54L36.43 12.54L36.43 12.54Q36.74 12.45 36.97 12.26L36.97 12.26L36.97 12.26Q37.20 12.08 37.34 11.83L37.34 11.83L37.34 11.83Q37.48 11.58 37.48 11.28L37.48 11.28L37.48 11.28Q37.37 11.10 37.24 10.88L37.24 10.88L37.24 10.88Q37.11 10.67 37.00 10.47L37.00 10.47L37.00 10.47Q36.89 10.22 36.77 9.99L36.77 9.99L36.77 9.99Q36.65 9.76 36.53 9.60L36.53 9.60L36.53 9.60Q36.22 9.72 35.78 9.92L35.78 9.92L35.78 9.92Q35.34 10.12 34.93 10.39L34.93 10.39L34.93 10.39Q34.52 10.67 34.24 10.99L34.24 10.99L34.24 10.99Q33.95 11.31 33.95 11.66L33.95 11.66L33.95 11.66Q33.95 11.86 34.10 12.03L34.10 12.03L34.10 12.03Q34.24 12.21 34.49 12.34L34.49 12.34L34.49 12.34Q34.73 12.47 35.07 12.56L35.07 12.56L35.07 12.56Q35.41 12.64 35.78 12.64ZM48.73 12.18L48.73 12.18L48.73 12.18Q48.82 12.32 48.91 12.47L48.91 12.47L48.91 12.47Q49 12.61 49.13 12.72L49.13 12.72L49.13 12.72Q49.25 12.82 49.44 12.86L49.44 12.86L49.44 12.86Q49.63 12.89 49.91 12.80L49.91 12.80L49.91 12.80Q49.28 13.16 48.67 13.45L48.67 13.45L48.67 13.45Q48.06 13.73 47.59 14.03L47.59 14.03L47.59 14.03Q47.21 13.85 47.12 13.40L47.12 13.40L47.12 13.40Q47.03 12.96 47.03 12.22L47.03 12.22L47.03 12.22Q46.76 12.43 46.47 12.73L46.47 12.73L46.47 12.73Q46.17 13.03 45.82 13.31L45.82 13.31L45.82 13.31Q45.47 13.59 45.05 13.80L45.05 13.80L45.05 13.80Q44.63 14 44.11 14L44.11 14L44.11 14Q43.96 14 43.74 13.94L43.74 13.94L43.74 13.94Q43.53 13.87 43.30 13.74L43.30 13.74L43.30 13.74Q43.08 13.61 42.88 13.39L42.88 13.39L42.88 13.39Q42.69 13.17 42.56 12.87L42.56 12.87L42.56 12.87Q42.53 12.70 42.52 12.46L42.52 12.46L42.52 12.46Q42.50 12.22 42.49 11.98L42.49 11.98L42.49 11.98Q42.48 11.73 42.47 11.49L42.47 11.49L42.47 11.49Q42.46 11.26 42.46 11.09L42.46 11.09L42.46 11.09Q42.46 10.50 42.48 10.02L42.48 10.02L42.48 10.02Q42.49 9.55 42.46 9.18L42.46 9.18L42.46 9.18Q42.43 8.82 42.34 8.58L42.34 8.58L42.34 8.58Q42.24 8.34 42.01 8.23L42.01 8.23L42.01 8.23Q41.85 8.16 41.68 8.13L41.68 8.13L41.68 8.13Q41.59 8.12 41.52 8.11L41.52 8.11L41.52 8.11Q41.83 8.01 42.18 7.85L42.18 7.85L42.18 7.85Q42.48 7.73 42.83 7.52L42.83 7.52L42.83 7.52Q43.19 7.32 43.55 7.04L43.55 7.04L43.55 7.04Q43.82 7.11 43.91 7.43L43.91 7.43L43.91 7.43Q44.00 7.74 44.00 8.21L44.00 8.21L44.00 8.21Q44.00 8.68 43.96 9.25L43.96 9.25L43.96 9.25Q43.92 9.81 43.92 10.37L43.92 10.37L43.92 10.37Q43.92 10.82 44.00 11.22L44.00 11.22L44.00 11.22Q44.07 11.62 44.26 11.92L44.26 11.92L44.26 11.92Q44.45 12.22 44.78 12.40L44.78 12.40L44.78 12.40Q45.11 12.59 45.63 12.59L45.63 12.59L45.63 12.59Q46.05 12.59 46.42 12.39L46.42 12.39L46.42 12.39Q46.79 12.19 47.03 11.98L47.03 11.98L47.03 11.98Q47.07 11.66 47.08 11.37L47.08 11.37L47.08 11.37Q47.08 11.07 47.08 10.75L47.08 10.75L47.08 10.75Q47.08 10.22 47.10 9.79L47.10 9.79L47.10 9.79Q47.11 9.35 47.09 9.03L47.09 9.03L47.09 9.03Q47.07 8.71 47.01 8.50L47.01 8.50L47.01 8.50Q46.94 8.30 46.79 8.23L46.79 8.23L46.79 8.23Q46.70 8.19 46.59 8.18L46.59 8.18L46.59 8.18Q46.47 8.16 46.35 8.15L46.35 8.15L46.35 8.15Q46.21 8.13 46.09 8.13L46.09 8.13L46.09 8.13Q46.58 7.99 47.04 7.81L47.04 7.81L47.04 7.81Q47.43 7.66 47.86 7.45L47.86 7.45L47.86 7.45Q48.29 7.24 48.58 6.99L48.58 6.99L48.58 6.99Q48.58 7.15 48.57 7.56L48.57 7.56L48.57 7.56Q48.55 7.97 48.55 8.50L48.55 8.50L48.55 8.50Q48.54 9.03 48.53 9.63L48.53 9.63L48.53 9.63Q48.52 10.22 48.55 10.74L48.55 10.74L48.55 10.74Q48.57 11.26 48.61 11.65L48.61 11.65L48.61 11.65Q48.65 12.04 48.73 12.18ZM55.01 7.06L55.01 7.06L55.01 7.06Q55.22 7.06 55.45 7.07L55.45 7.07L55.45 7.07Q55.69 7.08 55.85 7.15L55.85 7.15L55.85 7.15Q55.69 7.36 55.55 7.69L55.55 7.69L55.55 7.69Q55.41 8.01 55.30 8.30L55.30 8.30L55.30 8.30Q55.16 8.67 55.05 9.03L55.05 9.03L55.05 9.03Q54.95 8.97 54.80 8.92L54.80 8.92L54.80 8.92Q54.67 8.88 54.48 8.83L54.48 8.83L54.48 8.83Q54.29 8.79 54.03 8.79L54.03 8.79L54.03 8.79Q53.61 8.79 53.33 9.02L53.33 9.02L53.33 9.02Q53.06 9.25 52.89 9.63L52.89 9.63L52.89 9.63Q52.72 10.00 52.63 10.44L52.63 10.44L52.63 10.44Q52.54 10.89 52.50 11.31L52.50 11.31L52.50 11.31Q52.50 12.12 52.52 12.57L52.52 12.57L52.52 12.57Q52.54 13.02 52.54 13.30L52.54 13.30L52.54 13.30Q52.36 13.34 52.14 13.42L52.14 13.42L52.14 13.42Q51.93 13.50 51.70 13.60L51.70 13.60L51.70 13.60Q51.48 13.71 51.26 13.81L51.26 13.81L51.26 13.81Q51.04 13.92 50.88 14.01L50.88 14.01L50.88 14.01Q50.95 13.38 51.00 12.71L51.00 12.71L51.00 12.71Q51.04 12.04 51.07 11.40L51.07 11.40L51.07 11.40Q51.09 10.75 51.07 10.17L51.07 10.17L51.07 10.17Q51.04 9.59 50.98 9.15L50.98 9.15L50.98 9.15Q50.92 8.71 50.82 8.43L50.82 8.43L50.82 8.43Q50.72 8.16 50.58 8.13L50.58 8.13L50.58 8.13Q50.51 8.12 50.43 8.12L50.43 8.12L50.43 8.12Q50.34 8.12 50.26 8.12L50.26 8.12L50.26 8.12Q50.16 8.12 50.06 8.13L50.06 8.13L50.06 8.13Q50.44 8.01 50.82 7.84L50.82 7.84L50.82 7.84Q51.14 7.69 51.53 7.48L51.53 7.48L51.53 7.48Q51.93 7.28 52.29 7.01L52.29 7.01L52.29 7.01Q52.33 7.20 52.36 7.51L52.36 7.51L52.36 7.51Q52.39 7.83 52.42 8.22L52.42 8.22L52.42 8.22Q52.44 8.62 52.46 9.07L52.46 9.07L52.46 9.07Q52.47 9.52 52.50 9.95L52.50 9.95L52.50 9.95Q52.71 9.48 52.99 8.97L52.99 8.97L52.99 8.97Q53.27 8.46 53.59 8.03L53.59 8.03L53.59 8.03Q53.91 7.60 54.28 7.33L54.28 7.33L54.28 7.33Q54.64 7.06 55.01 7.06ZM62.72 9.52L62.72 9.52L62.72 9.52Q62.83 9.79 63.04 10.30L63.04 10.30L63.04 10.30Q63.25 10.82 63.48 11.35L63.48 11.35L63.48 11.35Q63.71 11.89 63.94 12.29L63.94 12.29L63.94 12.29Q64.16 12.70 64.32 12.73L64.32 12.73L64.32 12.73Q63.90 12.96 63.44 13.30L63.44 13.30L63.44 13.30Q62.99 13.64 62.65 14L62.65 14L62.65 14Q62.58 13.69 62.40 13.14L62.40 13.14L62.40 13.14Q62.22 12.59 61.91 11.93L61.91 11.93L61.91 11.93Q61.64 12.19 61.24 12.55L61.24 12.55L61.24 12.55Q60.83 12.91 60.37 13.23L60.37 13.23L60.37 13.23Q59.91 13.55 59.41 13.78L59.41 13.78L59.41 13.78Q58.91 14 58.46 14L58.46 14L58.46 14Q58.14 14 57.80 13.91L57.80 13.91L57.80 13.91Q57.46 13.82 57.18 13.64L57.18 13.64L57.18 13.64Q56.90 13.47 56.72 13.22L56.72 13.22L56.72 13.22Q56.55 12.96 56.55 12.64L56.55 12.64L56.55 12.64Q56.55 12.25 56.95 11.80L56.95 11.80L56.95 11.80Q57.36 11.35 57.96 10.91L57.96 10.91L57.96 10.91Q58.56 10.47 59.26 10.05L59.26 10.05L59.26 10.05Q59.96 9.63 60.55 9.27L60.55 9.27L60.55 9.27Q60.12 8.72 59.73 8.48L59.73 8.48L59.73 8.48Q59.35 8.23 58.88 8.23L58.88 8.23L58.88 8.23Q58.69 8.23 58.37 8.34L58.37 8.34L58.37 8.34Q58.06 8.46 57.76 8.60L57.76 8.60L57.76 8.60Q57.40 8.75 57.04 8.95L57.04 8.95L57.04 8.95Q57.82 8.41 58.55 7.98L58.55 7.98L58.55 7.98Q58.86 7.80 59.18 7.63L59.18 7.63L59.18 7.63Q59.50 7.46 59.80 7.32L59.80 7.32L59.80 7.32Q60.10 7.18 60.36 7.10L60.36 7.10L60.36 7.10Q60.62 7.01 60.80 7.01L60.80 7.01L60.80 7.01Q61.15 7.01 61.45 7.31L61.45 7.31L61.45 7.31Q61.75 7.62 62.00 8.03L62.00 8.03L62.00 8.03Q62.24 8.44 62.42 8.86L62.42 8.86L62.42 8.86Q62.59 9.28 62.72 9.52ZM59.98 12.64L59.98 12.64L59.98 12.64Q60.31 12.64 60.62 12.54L60.62 12.54L60.62 12.54Q60.93 12.45 61.16 12.26L61.16 12.26L61.16 12.26Q61.39 12.08 61.53 11.83L61.53 11.83L61.53 11.83Q61.67 11.58 61.67 11.28L61.67 11.28L61.67 11.28Q61.56 11.10 61.43 10.88L61.43 10.88L61.43 10.88Q61.31 10.67 61.19 10.47L61.19 10.47L61.19 10.47Q61.08 10.22 60.96 9.99L60.96 9.99L60.96 9.99Q60.84 9.76 60.72 9.60L60.72 9.60L60.72 9.60Q60.41 9.72 59.97 9.92L59.97 9.92L59.97 9.92Q59.53 10.12 59.12 10.39L59.12 10.39L59.12 10.39Q58.72 10.67 58.43 10.99L58.43 10.99L58.43 10.99Q58.14 11.31 58.14 11.66L58.14 11.66L58.14 11.66Q58.14 11.86 58.29 12.03L58.29 12.03L58.29 12.03Q58.44 12.21 58.68 12.34L58.68 12.34L58.68 12.34Q58.93 12.47 59.26 12.56L59.26 12.56L59.26 12.56Q59.60 12.64 59.98 12.64ZM70.28 6.99L70.28 6.99L70.28 6.99Q70.91 6.99 71.43 7.24L71.43 7.24L71.43 7.24Q71.95 7.49 72.32 7.90L72.32 7.90L72.32 7.90Q72.69 8.32 72.89 8.86L72.89 8.86L72.89 8.86Q73.09 9.39 73.09 9.97L73.09 9.97L73.09 9.97Q73.09 10.96 72.76 11.91L72.76 11.91L72.76 11.91Q72.42 12.85 71.80 13.58L71.80 13.58L71.80 13.58Q71.18 14.31 70.30 14.75L70.30 14.75L70.30 14.75Q69.43 15.19 68.35 15.19L68.35 15.19L68.35 15.19Q67.80 15.19 67.49 15.14L67.49 15.14L67.49 15.14Q67.17 15.09 66.89 15.04L66.89 15.04L66.89 15.04Q66.60 14.98 66.26 14.93L66.26 14.93L66.26 14.93Q65.91 14.88 65.31 14.88L65.31 14.88L65.31 14.88Q65.06 14.88 64.72 15.00L64.72 15.00L64.72 15.00Q64.39 15.12 64.09 15.37L64.09 15.37L64.09 15.37Q63.78 15.62 63.57 16.00L63.57 16.00L63.57 16.00Q63.35 16.38 63.35 16.88L63.35 16.88L63.35 16.88Q63.35 17.15 63.46 17.35L63.46 17.35L63.46 17.35Q63.57 17.54 63.76 17.70L63.76 17.70L63.76 17.70Q63.95 17.85 64.19 17.95L64.19 17.95L64.19 17.95Q64.43 18.06 64.68 18.13L64.68 18.13L64.68 18.13Q65.25 18.30 66.01 18.34L66.01 18.34L66.01 18.34Q65.21 18.31 64.60 18.16L64.60 18.16L64.60 18.16Q64.33 18.09 64.08 17.98L64.08 17.98L64.08 17.98Q63.83 17.88 63.63 17.72L63.63 17.72L63.63 17.72Q63.43 17.57 63.32 17.37L63.32 17.37L63.32 17.37Q63.20 17.16 63.20 16.88L63.20 16.88L63.20 16.88Q63.20 16.41 63.49 15.92L63.49 15.92L63.49 15.92Q63.78 15.43 64.27 15.04L64.27 15.04L64.27 15.04Q64.76 14.64 65.40 14.39L65.40 14.39L65.40 14.39Q66.04 14.14 66.72 14.14L66.72 14.14L66.72 14.14Q67.24 14.14 67.55 14.20L67.55 14.20L67.55 14.20Q67.86 14.25 68.14 14.31L68.14 14.31L68.14 14.31Q68.42 14.38 68.77 14.43L68.77 14.43L68.77 14.43Q69.12 14.48 69.72 14.48L69.72 14.48L69.72 14.48Q70.35 14.48 70.76 14.28L70.76 14.28L70.76 14.28Q71.16 14.08 71.39 13.70L71.39 13.70L71.39 13.70Q71.62 13.31 71.72 12.75L71.72 12.75L71.72 12.75Q71.81 12.18 71.81 11.42L71.81 11.42L71.81 11.42Q71.81 10.75 71.55 10.15L71.55 10.15L71.55 10.15Q71.30 9.55 70.88 9.09L70.88 9.09L70.88 9.09Q70.45 8.64 69.90 8.37L69.90 8.37L69.90 8.37Q69.34 8.11 68.74 8.11L68.74 8.11L68.74 8.11Q68.38 8.11 68.14 8.18L68.14 8.18L68.14 8.18Q67.90 8.25 67.69 8.44L67.69 8.44L67.69 8.44Q67.69 8.60 67.66 9.03L67.66 9.03L67.66 9.03Q67.63 9.46 67.63 10.11L67.63 10.11L67.63 10.11Q67.62 10.75 67.66 11.58L67.66 11.58L67.66 11.58Q67.70 12.40 67.86 13.34L67.86 13.34L67.86 13.34Q67.38 13.34 66.89 13.55L66.89 13.55L66.89 13.55Q66.39 13.76 66.01 14L66.01 14L66.01 14Q66.05 13.75 66.09 13.23L66.09 13.23L66.09 13.23Q66.14 12.71 66.16 12.09L66.16 12.09L66.16 12.09Q66.19 11.47 66.19 10.79L66.19 10.79L66.19 10.79Q66.18 10.12 66.14 9.55L66.14 9.55L66.14 9.55Q66.09 8.99 65.99 8.59L65.99 8.59L65.99 8.59Q65.88 8.19 65.70 8.11L65.70 8.11L65.70 8.11Q65.46 8.06 65.28 8.09L65.28 8.09L65.28 8.09Q65.20 8.11 65.13 8.13L65.13 8.13L65.13 8.13Q65.58 7.81 65.97 7.56L65.97 7.56L65.97 7.56Q66.30 7.35 66.65 7.17L66.65 7.17L66.65 7.17Q67.00 6.99 67.23 6.99L67.23 6.99L67.23 6.99Q67.38 6.99 67.47 7.02L67.47 7.02L67.47 7.02Q67.56 7.06 67.61 7.17L67.61 7.17L67.61 7.17Q67.66 7.29 67.68 7.50L67.68 7.50L67.68 7.50Q67.69 7.70 67.69 8.04L67.69 8.04L67.69 8.04Q68.36 7.55 69.02 7.27L69.02 7.27L69.02 7.27Q69.68 6.99 70.28 6.99ZM75.88-0.03L75.88-0.03L75.88-0.03Q75.88-3.22 75.82-4.93L75.82-4.93L75.82-4.93Q75.77-6.65 75.60-7.01L75.60-7.01L75.60-7.01Q76.02-7.01 76.46-7.22L76.46-7.22L76.46-7.22Q76.90-7.42 77.36-7.73L77.36-7.73L77.36-7.73Q77.83-8.04 78.32-8.40L78.32-8.40L78.32-8.40Q78.81-8.76 79.32-9.07L79.32-9.07L79.32-9.07Q79.83-9.38 80.38-9.58L80.38-9.58L80.38-9.58Q80.93-9.79 81.52-9.79L81.52-9.79L81.52-9.79Q82.31-9.79 82.84-9.55L82.84-9.55L82.84-9.55Q83.37-9.32 83.69-8.93L83.69-8.93L83.69-8.93Q84.01-8.54 84.15-8.04L84.15-8.04L84.15-8.04Q84.28-7.55 84.28-7.01L84.28-7.01L84.28-7.01Q84.28-5.70 83.86-4.59L83.86-4.59L83.86-4.59Q83.44-3.47 82.75-2.54L82.75-2.54L82.75-2.54Q82.07-1.61 81.19-0.85L81.19-0.85L81.19-0.85Q80.30-0.10 79.39 0.49L79.39 0.49L79.39 0.49Q77.25 1.88 74.52 2.74L74.52 2.74L74.52 2.74Q77.21 1.88 79.32 0.49L79.32 0.49L79.32 0.49Q80.22-0.10 81.09-0.85L81.09-0.85L81.09-0.85Q81.96-1.61 82.64-2.54L82.64-2.54L82.64-2.54Q83.31-3.47 83.73-4.59L83.73-4.59L83.73-4.59Q84.14-5.70 84.14-7.01L84.14-7.01L84.14-7.01Q84.14-7.55 84.01-8.02L84.01-8.02L84.01-8.02Q83.89-8.50 83.59-8.86L83.59-8.86L83.59-8.86Q83.29-9.23 82.78-9.44L82.78-9.44L82.78-9.44Q82.28-9.65 81.52-9.65L81.52-9.65L81.52-9.65Q80.70-9.65 80.04-9.33L80.04-9.33L80.04-9.33Q79.38-9.02 78.90-8.57L78.90-8.57L78.90-8.57Q78.41-8.13 78.11-7.66L78.11-7.66L78.11-7.66Q77.81-7.20 77.71-6.87L77.71-6.87L77.71-6.87Q77.56-6.40 77.48-5.85L77.48-5.85L77.48-5.85Q77.39-5.31 77.35-4.53L77.35-4.53L77.35-4.53Q77.31-3.75 77.30-2.65L77.30-2.65L77.30-2.65Q77.29-1.55 77.29 0.03L77.29 0.03L77.29 0.03Q77.29 0.71 77.29 1.48L77.29 1.48L77.29 1.48Q77.29 2.25 77.30 3.03L77.30 3.03L77.30 3.03Q77.31 3.81 77.32 4.52L77.32 4.52L77.32 4.52Q77.32 5.24 77.33 5.80L77.33 5.80L77.33 5.80Q77.34 6.36 77.34 6.71L77.34 6.71L77.34 6.71Q77.34 7.06 77.34 7.08L77.34 7.08L77.34 7.08Q77.59 7.17 77.88 7.20L77.88 7.20L77.88 7.20Q78.16 7.24 78.44 7.24L78.44 7.24L78.44 7.24Q78.72 7.24 78.97 7.22L78.97 7.22L78.97 7.22Q79.23 7.20 79.39 7.18L79.39 7.18L79.39 7.18Q79.23 7.38 78.95 7.51L78.95 7.51L78.95 7.51Q78.68 7.64 78.38 7.74L78.38 7.74L78.38 7.74Q78.08 7.84 77.79 7.90L77.79 7.90L77.79 7.90Q77.50 7.97 77.29 8.02L77.29 8.02L77.29 8.02Q77.32 8.54 77.28 9.06L77.28 9.06L77.28 9.06Q77.24 9.59 77.24 10.08L77.24 10.08L77.24 10.08Q77.24 10.57 77.32 11.00L77.32 11.00L77.32 11.00Q77.41 11.44 77.67 11.77L77.67 11.77L77.67 11.77Q77.92 12.11 78.41 12.33L78.41 12.33L78.41 12.33Q78.89 12.54 79.69 12.59L79.69 12.59L79.69 12.59Q79.48 12.77 79.25 13.01L79.25 13.01L79.25 13.01Q79.02 13.24 78.76 13.45L78.76 13.45L78.76 13.45Q78.51 13.66 78.25 13.81L78.25 13.81L78.25 13.81Q77.98 13.96 77.70 13.96L77.70 13.96L77.70 13.96Q77.41 13.96 77.11 13.84L77.11 13.84L77.11 13.84Q76.82 13.72 76.59 13.48L76.59 13.48L76.59 13.48Q76.36 13.24 76.20 12.91L76.20 12.91L76.20 12.91Q76.05 12.57 76.03 12.12L76.03 12.12L76.03 12.12Q75.99 10.99 75.96 9.93L75.96 9.93L75.96 9.93Q75.94 8.86 75.94 7.98L75.94 7.98L75.94 7.98Q75.57 7.95 75.33 7.92L75.33 7.92L75.33 7.92Q75.08 7.90 74.93 7.87L74.93 7.87L74.93 7.87Q74.75 7.83 74.62 7.78L74.62 7.78L74.62 7.78Q74.80 7.71 75.01 7.62L75.01 7.62L75.01 7.62Q75.19 7.53 75.40 7.41L75.40 7.41L75.40 7.41Q75.61 7.29 75.82 7.13L75.82 7.13L75.82 7.13Q75.84 7.07 75.84 6.71L75.84 6.71L75.84 6.71Q75.85 6.36 75.86 5.79L75.86 5.79L75.86 5.79Q75.87 5.22 75.87 4.50L75.87 4.50L75.87 4.50Q75.88 3.78 75.88 3.00L75.88 3.00L75.88 3.00Q75.88 2.23 75.88 1.45L75.88 1.45L75.88 1.45Q75.88 0.67 75.88-0.03ZM90.55 6.51L90.55 6.51L90.55 6.51Q90.55 5.40 90.48 4.30L90.48 4.30L90.48 4.30Q90.41 3.21 90.31 2.32L90.31 2.32L90.31 2.32Q90.22 1.44 90.09 0.88L90.09 0.88L90.09 0.88Q89.96 0.32 89.87 0.31L89.87 0.31L89.87 0.31Q89.73 0.28 89.61 0.26L89.61 0.26L89.61 0.26Q89.50 0.24 89.40 0.21L89.40 0.21L89.40 0.21Q89.29 0.18 89.19 0.17L89.19 0.17L89.19 0.04L89.19 0.04Q89.36 0.08 89.59 0.11L89.59 0.11L89.59 0.11Q89.78 0.14 90.06 0.15L90.06 0.15L90.06 0.15Q90.33 0.17 90.69 0.17L90.69 0.17L90.69 0.17Q91.48 0.17 92.21 0.11L92.21 0.11L92.21 0.11Q92.95 0.04 93.76 0.04L93.76 0.04L93.76 0.04Q94.32 0.04 94.92 0.22L94.92 0.22L94.92 0.22Q95.52 0.39 96.03 0.82L96.03 0.82L96.03 0.82Q96.53 1.25 96.86 1.95L96.86 1.95L96.86 1.95Q97.19 2.65 97.19 3.70L97.19 3.70L97.19 3.70Q97.19 4.54 96.99 5.17L96.99 5.17L96.99 5.17Q96.80 5.81 96.48 6.28L96.48 6.28L96.48 6.28Q96.17 6.75 95.77 7.06L95.77 7.06L95.77 7.06Q95.37 7.38 94.95 7.59L94.95 7.59L94.95 7.59Q93.97 8.06 92.72 8.12L92.72 8.12L92.72 8.12Q93.44 8.20 94.00 7.77L94.00 7.77L94.00 7.77Q94.23 7.59 94.47 7.28L94.47 7.28L94.47 7.28Q94.70 6.97 94.88 6.49L94.88 6.49L94.88 6.49Q95.06 6.01 95.17 5.32L95.17 5.32L95.17 5.32Q95.28 4.63 95.28 3.70L95.28 3.70L95.28 3.70Q95.28 2.94 95.09 2.31L95.09 2.31L95.09 2.31Q94.89 1.68 94.58 1.24L94.58 1.24L94.58 1.24Q94.26 0.80 93.85 0.55L93.85 0.55L93.85 0.55Q93.44 0.31 93.00 0.31L93.00 0.31L93.00 0.31Q92.72 0.31 92.55 0.37L92.55 0.37L92.55 0.37Q92.37 0.43 92.26 0.59L92.26 0.59L92.26 0.59Q92.11 1.50 92.08 3.03L92.08 3.03L92.08 3.03Q92.05 4.56 92.05 6.92L92.05 6.92L92.05 6.92Q92.05 8.79 92.12 10.08L92.12 10.08L92.12 10.08Q92.19 11.37 92.29 12.18L92.29 12.18L92.29 12.18Q92.40 13.13 92.54 13.72L92.54 13.72L93.58 13.92L93.58 14L93.58 14Q93.31 13.99 93.00 13.96L93.00 13.96L93.00 13.96Q92.74 13.94 92.37 13.93L92.37 13.93L92.37 13.93Q92.01 13.92 91.59 13.92L91.59 13.92L91.59 13.92Q91.07 13.92 90.69 13.93L90.69 13.93L90.69 13.93Q90.31 13.94 90.05 13.96L90.05 13.96L90.05 13.96Q89.74 13.99 89.52 14L89.52 14L89.52 13.92L89.52 13.92Q89.61 13.90 89.74 13.86L89.74 13.86L89.74 13.86Q89.85 13.83 89.99 13.80L89.99 13.80L89.99 13.80Q90.12 13.76 90.27 13.72L90.27 13.72L90.27 13.72Q90.41 13.71 90.47 13.09L90.47 13.09L90.47 13.09Q90.52 12.47 90.55 11.47L90.55 11.47L90.55 11.47Q90.57 10.46 90.56 9.17L90.56 9.17L90.56 9.17Q90.55 7.88 90.55 6.51ZM102.13 7.06L102.13 7.06L102.13 7.06Q102.34 7.06 102.58 7.07L102.58 7.07L102.58 7.07Q102.82 7.08 102.97 7.15L102.97 7.15L102.97 7.15Q102.82 7.36 102.68 7.69L102.68 7.69L102.68 7.69Q102.54 8.01 102.42 8.30L102.42 8.30L102.42 8.30Q102.28 8.67 102.17 9.03L102.17 9.03L102.17 9.03Q102.07 8.97 101.92 8.92L101.92 8.92L101.92 8.92Q101.79 8.88 101.61 8.83L101.61 8.83L101.61 8.83Q101.42 8.79 101.15 8.79L101.15 8.79L101.15 8.79Q100.73 8.79 100.46 9.02L100.46 9.02L100.46 9.02Q100.18 9.25 100.02 9.63L100.02 9.63L100.02 9.63Q99.85 10.00 99.76 10.44L99.76 10.44L99.76 10.44Q99.67 10.89 99.62 11.31L99.62 11.31L99.62 11.31Q99.62 12.12 99.65 12.57L99.65 12.57L99.65 12.57Q99.67 13.02 99.67 13.30L99.67 13.30L99.67 13.30Q99.48 13.34 99.27 13.42L99.27 13.42L99.27 13.42Q99.05 13.50 98.83 13.60L98.83 13.60L98.83 13.60Q98.60 13.71 98.39 13.81L98.39 13.81L98.39 13.81Q98.17 13.92 98.00 14.01L98.00 14.01L98.00 14.01Q98.07 13.38 98.12 12.71L98.12 12.71L98.12 12.71Q98.17 12.04 98.19 11.40L98.19 11.40L98.19 11.40Q98.21 10.75 98.19 10.17L98.19 10.17L98.19 10.17Q98.17 9.59 98.11 9.15L98.11 9.15L98.11 9.15Q98.04 8.71 97.94 8.43L97.94 8.43L97.94 8.43Q97.85 8.16 97.71 8.13L97.71 8.13L97.71 8.13Q97.64 8.12 97.55 8.12L97.55 8.12L97.55 8.12Q97.47 8.12 97.38 8.12L97.38 8.12L97.38 8.12Q97.29 8.12 97.19 8.13L97.19 8.13L97.19 8.13Q97.57 8.01 97.94 7.84L97.94 7.84L97.94 7.84Q98.27 7.69 98.66 7.48L98.66 7.48L98.66 7.48Q99.05 7.28 99.41 7.01L99.41 7.01L99.41 7.01Q99.46 7.20 99.48 7.51L99.48 7.51L99.48 7.51Q99.51 7.83 99.54 8.22L99.54 8.22L99.54 8.22Q99.57 8.62 99.58 9.07L99.58 9.07L99.58 9.07Q99.60 9.52 99.62 9.95L99.62 9.95L99.62 9.95Q99.83 9.48 100.11 8.97L100.11 8.97L100.11 8.97Q100.39 8.46 100.72 8.03L100.72 8.03L100.72 8.03Q101.04 7.60 101.40 7.33L101.40 7.33L101.40 7.33Q101.77 7.06 102.13 7.06ZM104.19 9.66L104.19 9.66L104.19 9.66Q104.19 10.08 104.35 10.59L104.35 10.59L104.35 10.59Q104.51 11.10 104.89 11.54L104.89 11.54L104.89 11.54Q105.27 11.98 105.88 12.29L105.88 12.29L105.88 12.29Q106.48 12.59 107.37 12.59L107.37 12.59L107.37 12.59Q107.83 12.59 108.09 12.46L108.09 12.46L108.09 12.46Q108.36 12.33 108.49 12.14L108.49 12.14L108.49 12.14Q108.61 11.96 108.65 11.75L108.65 11.75L108.65 11.75Q108.68 11.54 108.68 11.35L108.68 11.35L108.68 11.35Q108.68 10.75 108.45 10.16L108.45 10.16L108.45 10.16Q108.22 9.58 107.81 9.11L107.81 9.11L107.81 9.11Q107.41 8.65 106.86 8.37L106.86 8.37L106.86 8.37Q106.30 8.09 105.66 8.09L105.66 8.09L105.66 8.09Q105.24 8.09 104.96 8.25L104.96 8.25L104.96 8.25Q104.68 8.41 104.50 8.66L104.50 8.66L104.50 8.66Q104.33 8.90 104.26 9.18L104.26 9.18L104.26 9.18Q104.19 9.45 104.19 9.66ZM107.27 7L107.27 7L107.27 7Q107.69 7 108.17 7.18L108.17 7.18L108.17 7.18Q108.65 7.36 109.07 7.73L109.07 7.73L109.07 7.73Q109.48 8.09 109.75 8.66L109.75 8.66L109.75 8.66Q110.01 9.23 110.01 9.98L110.01 9.98L110.01 9.98Q110.01 10.42 109.81 10.88L109.81 10.88L109.81 10.88Q109.61 11.34 109.28 11.79L109.28 11.79L109.28 11.79Q108.95 12.24 108.52 12.63L108.52 12.63L108.52 12.63Q108.09 13.03 107.64 13.34L107.64 13.34L107.64 13.34Q107.18 13.64 106.73 13.82L106.73 13.82L106.73 13.82Q106.27 14 105.90 14L105.90 14L105.90 14Q105.32 14 104.80 13.76L104.80 13.76L104.80 13.76Q104.27 13.52 103.87 13.12L103.87 13.12L103.87 13.12Q103.46 12.71 103.22 12.19L103.22 12.19L103.22 12.19Q102.97 11.66 102.97 11.07L102.97 11.07L102.97 11.07Q102.97 10.28 103.40 9.54L103.40 9.54L103.40 9.54Q103.84 8.81 104.48 8.24L104.48 8.24L104.48 8.24Q105.13 7.67 105.88 7.34L105.88 7.34L105.88 7.34Q106.62 7 107.27 7ZM114.02 5.24L114.02 5.24L114.02 5.24Q113.83 5.39 113.65 5.54L113.65 5.54L113.65 5.54Q113.50 5.68 113.32 5.85L113.32 5.85L113.32 5.85Q113.15 6.02 112.99 6.22L112.99 6.22L112.99 6.22Q112.84 5.98 112.67 5.79L112.67 5.79L112.67 5.79Q112.49 5.60 112.34 5.47L112.34 5.47L112.34 5.47Q112.17 5.32 111.99 5.24L111.99 5.24L111.99 5.24Q112.17 5.10 112.35 4.94L112.35 4.94L112.35 4.94Q112.50 4.80 112.67 4.63L112.67 4.63L112.67 4.63Q112.84 4.45 112.99 4.26L112.99 4.26L112.99 4.26Q113.15 4.49 113.32 4.68L113.32 4.68L113.32 4.68Q113.50 4.86 113.65 4.98L113.65 4.98L113.65 4.98Q113.83 5.14 114.02 5.24ZM111.47 8.26L111.47 8.26L111.47 8.26Q111.86 8.18 112.28 8.01L112.28 8.01L112.28 8.01Q112.64 7.87 113.09 7.62L113.09 7.62L113.09 7.62Q113.53 7.38 113.97 7L113.97 7L113.97 7Q113.90 7.31 113.88 7.96L113.88 7.96L113.88 7.96Q113.85 8.61 113.84 9.49L113.84 9.49L113.84 9.49Q113.83 10.37 113.84 11.42L113.84 11.42L113.84 11.42Q113.85 12.47 113.86 13.59L113.86 13.59L113.86 13.59Q113.86 14.70 113.88 15.81L113.88 15.81L113.88 15.81Q113.89 16.91 113.88 17.90L113.88 17.90L113.88 17.90Q113.88 18.89 113.86 19.70L113.86 19.70L113.86 19.70Q113.83 20.52 113.78 21.04L113.78 21.04L113.78 21.04Q113.71 21.71 113.49 22.60L113.49 22.60L113.49 22.60Q113.27 23.49 112.92 24.42L112.92 24.42L112.92 24.42Q112.57 25.35 112.09 26.25L112.09 26.25L112.09 26.25Q111.61 27.15 110.99 27.85L110.99 27.85L110.99 27.85Q110.38 28.56 109.64 28.99L109.64 28.99L109.64 28.99Q108.91 29.43 108.05 29.43L108.05 29.43L108.05 29.43Q107.52 29.43 106.90 29.13L106.90 29.13L106.90 29.13Q106.29 28.84 105.83 28.18L105.83 28.18L105.83 28.18Q105.36 27.51 105.16 26.43L105.16 26.43L105.16 26.43Q104.96 25.34 105.25 23.74L105.25 23.74L105.25 23.74Q105.43 22.74 105.83 21.84L105.83 21.84L105.83 21.84Q106.23 20.94 106.76 20.17L106.76 20.17L106.76 20.17Q107.28 19.39 107.89 18.74L107.89 18.74L107.89 18.74Q108.50 18.09 109.12 17.56L109.12 17.56L109.12 17.56Q110.53 16.32 112.22 15.44L112.22 15.44L112.22 15.44Q110.57 16.35 109.19 17.58L109.19 17.58L109.19 17.58Q108.60 18.12 108.00 18.77L108.00 18.77L108.00 18.77Q107.39 19.42 106.88 20.19L106.88 20.19L106.88 20.19Q106.37 20.96 105.97 21.85L105.97 21.85L105.97 21.85Q105.57 22.74 105.39 23.73L105.39 23.73L105.39 23.73Q105.18 24.81 105.21 25.63L105.21 25.63L105.21 25.63Q105.24 26.46 105.42 27.08L105.42 27.08L105.42 27.08Q105.60 27.69 105.90 28.11L105.90 28.11L105.90 28.11Q106.20 28.53 106.57 28.80L106.57 28.80L106.57 28.80Q106.93 29.06 107.32 29.18L107.32 29.18L107.32 29.18Q107.70 29.29 108.05 29.29L108.05 29.29L108.05 29.29Q108.92 29.29 109.59 28.88L109.59 28.88L109.59 28.88Q110.25 28.46 110.73 27.80L110.73 27.80L110.73 27.80Q111.22 27.15 111.55 26.32L111.55 26.32L111.55 26.32Q111.89 25.49 112.11 24.65L112.11 24.65L112.11 24.65Q112.32 23.81 112.43 23.05L112.43 23.05L112.43 23.05Q112.53 22.29 112.57 21.76L112.57 21.76L112.57 21.76Q112.60 21.25 112.62 20.43L112.62 20.43L112.62 20.43Q112.63 19.60 112.62 18.58L112.62 18.58L112.62 18.58Q112.62 17.56 112.60 16.43L112.60 16.43L112.60 16.43Q112.57 15.30 112.54 14.20L112.54 14.20L112.54 14.20Q112.50 13.09 112.46 12.07L112.46 12.07L112.46 12.07Q112.42 11.06 112.37 10.28L112.37 10.28L112.37 10.28Q112.32 9.49 112.27 9.02L112.27 9.02L112.27 9.02Q112.22 8.54 112.18 8.50L112.18 8.50L112.18 8.50Q112.11 8.43 111.99 8.38L111.99 8.38L111.99 8.38Q111.86 8.33 111.75 8.30L111.75 8.30L111.75 8.30Q111.61 8.27 111.47 8.26ZM121.04 12.49L121.04 12.49L121.04 12.49Q121.45 12.49 121.81 12.38L121.81 12.38L121.81 12.38Q122.16 12.28 122.43 12.14L122.43 12.14L122.43 12.14Q122.74 11.98 123.00 11.79L123.00 11.79L123.00 11.79Q122.63 12.42 122.09 12.91L122.09 12.91L122.09 12.91Q121.65 13.33 120.97 13.67L120.97 13.67L120.97 13.67Q120.29 14.01 119.39 14.01L119.39 14.01L119.39 14.01Q118.75 14.01 118.16 13.79L118.16 13.79L118.16 13.79Q117.57 13.57 117.12 13.15L117.12 13.15L117.12 13.15Q116.66 12.73 116.40 12.12L116.40 12.12L116.40 12.12Q116.13 11.51 116.13 10.75L116.13 10.75L116.13 10.75Q116.13 10.07 116.35 9.54L116.35 9.54L116.35 9.54Q116.56 9.02 116.91 8.62L116.91 8.62L116.91 8.62Q117.26 8.23 117.70 7.97L117.70 7.97L117.70 7.97Q118.13 7.71 118.55 7.55L118.55 7.55L118.55 7.55Q119.90 7 120.39 7L120.39 7L120.39 7Q120.90 7 121.29 7.17L121.29 7.17L121.29 7.17Q121.67 7.35 121.95 7.56L121.95 7.56L121.95 7.56Q122.26 7.81 122.50 8.12L122.50 8.12L117.88 9.98L117.88 9.98Q117.98 10.57 118.16 11.03L118.16 11.03L118.16 11.03Q118.34 11.49 118.69 11.82L118.69 11.82L118.69 11.82Q119.04 12.14 119.60 12.31L119.60 12.31L119.60 12.31Q120.16 12.49 121.04 12.49ZM118.78 7.81L118.78 7.81L118.78 7.81Q118.58 7.81 118.40 7.92L118.40 7.92L118.40 7.92Q118.22 8.02 118.07 8.19L118.07 8.19L118.07 8.19Q117.92 8.36 117.85 8.57L117.85 8.57L117.85 8.57Q117.77 8.78 117.78 8.99L117.78 8.99L117.78 8.99Q117.78 9.21 117.79 9.42L117.79 9.42L117.79 9.42Q117.80 9.63 117.84 9.84L117.84 9.84L120.19 8.76L120.19 8.76Q120.05 8.50 119.84 8.29L119.84 8.29L119.84 8.29Q119.66 8.11 119.39 7.96L119.39 7.96L119.39 7.96Q119.13 7.81 118.78 7.81ZM128.21 7L128.21 7L128.21 7Q128.38 7.20 128.67 7.39L128.67 7.39L128.67 7.39Q128.97 7.59 129.29 7.75L129.29 7.75L129.29 7.75Q129.61 7.91 129.93 8.02L129.93 8.02L129.93 8.02Q130.24 8.12 130.48 8.12L130.48 8.12L130.48 8.12Q130.27 8.26 130.01 8.41L130.01 8.41L130.01 8.41Q129.75 8.55 129.52 8.69L129.52 8.69L129.52 8.69Q129.29 8.82 129.12 8.92L129.12 8.92L129.12 8.92Q128.94 9.02 128.87 9.07L128.87 9.07L128.87 9.07Q128.67 9.10 128.37 9.03L128.37 9.03L128.37 9.03Q128.06 8.96 127.73 8.83L127.73 8.83L127.73 8.83Q127.40 8.71 127.11 8.57L127.11 8.57L127.11 8.57Q126.81 8.43 126.66 8.32L126.66 8.32L126.66 8.32Q126.53 8.40 126.40 8.55L126.40 8.55L126.40 8.55Q126.27 8.71 126.15 8.92L126.15 8.92L126.15 8.92Q126.04 9.13 125.97 9.38L125.97 9.38L125.97 9.38Q125.90 9.63 125.90 9.91L125.90 9.91L125.90 9.91Q125.90 10.54 126.22 11.02L126.22 11.02L126.22 11.02Q126.53 11.49 126.99 11.81L126.99 11.81L126.99 11.81Q127.44 12.12 127.95 12.29L127.95 12.29L127.95 12.29Q128.46 12.45 128.87 12.45L128.87 12.45L128.87 12.45Q129.42 12.45 129.85 12.34L129.85 12.34L129.85 12.34Q130.28 12.24 130.59 12.10L130.59 12.10L130.59 12.10Q130.96 11.94 131.22 11.75L131.22 11.75L131.22 11.75Q130.93 12.01 130.54 12.40L130.54 12.40L130.54 12.40Q130.16 12.78 129.70 13.14L129.70 13.14L129.70 13.14Q129.25 13.50 128.71 13.75L128.71 13.75L128.71 13.75Q128.17 14 127.55 14L127.55 14L127.55 14Q126.85 14 126.27 13.74L126.27 13.74L126.27 13.74Q125.69 13.48 125.28 13.05L125.28 13.05L125.28 13.05Q124.87 12.63 124.64 12.08L124.64 12.08L124.64 12.08Q124.40 11.54 124.40 10.95L124.40 10.95L124.40 10.95Q124.40 10.42 124.64 9.97L124.64 9.97L124.64 9.97Q124.87 9.52 125.22 9.14L125.22 9.14L125.22 9.14Q125.58 8.76 126.02 8.45L126.02 8.45L126.02 8.45Q126.46 8.13 126.89 7.87L126.89 7.87L126.89 7.87Q127.32 7.60 127.67 7.39L127.67 7.39L127.67 7.39Q128.02 7.18 128.21 7ZM133.98-0.03L133.98-0.03L133.98-0.03Q133.98-3.22 133.92-4.93L133.92-4.93L133.92-4.93Q133.87-6.65 133.70-7.01L133.70-7.01L133.70-7.01Q134.12-7.01 134.56-7.22L134.56-7.22L134.56-7.22Q135.00-7.42 135.46-7.73L135.46-7.73L135.46-7.73Q135.93-8.04 136.42-8.40L136.42-8.40L136.42-8.40Q136.91-8.76 137.42-9.07L137.42-9.07L137.42-9.07Q137.93-9.38 138.48-9.58L138.48-9.58L138.48-9.58Q139.03-9.79 139.62-9.79L139.62-9.79L139.62-9.79Q140.41-9.79 140.94-9.55L140.94-9.55L140.94-9.55Q141.47-9.32 141.79-8.93L141.79-8.93L141.79-8.93Q142.11-8.54 142.25-8.04L142.25-8.04L142.25-8.04Q142.38-7.55 142.38-7.01L142.38-7.01L142.38-7.01Q142.38-5.70 141.96-4.59L141.96-4.59L141.96-4.59Q141.54-3.47 140.85-2.54L140.85-2.54L140.85-2.54Q140.17-1.61 139.29-0.85L139.29-0.85L139.29-0.85Q138.40-0.10 137.49 0.49L137.49 0.49L137.49 0.49Q135.35 1.88 132.62 2.74L132.62 2.74L132.62 2.74Q135.31 1.88 137.42 0.49L137.42 0.49L137.42 0.49Q138.32-0.10 139.19-0.85L139.19-0.85L139.19-0.85Q140.06-1.61 140.74-2.54L140.74-2.54L140.74-2.54Q141.41-3.47 141.83-4.59L141.83-4.59L141.83-4.59Q142.24-5.70 142.24-7.01L142.24-7.01L142.24-7.01Q142.24-7.55 142.11-8.02L142.11-8.02L142.11-8.02Q141.99-8.50 141.69-8.86L141.69-8.86L141.69-8.86Q141.39-9.23 140.88-9.44L140.88-9.44L140.88-9.44Q140.38-9.65 139.62-9.65L139.62-9.65L139.62-9.65Q138.80-9.65 138.14-9.33L138.14-9.33L138.14-9.33Q137.48-9.02 137.00-8.57L137.00-8.57L137.00-8.57Q136.51-8.13 136.21-7.66L136.21-7.66L136.21-7.66Q135.91-7.20 135.81-6.87L135.81-6.87L135.81-6.87Q135.66-6.40 135.58-5.85L135.58-5.85L135.58-5.85Q135.49-5.31 135.45-4.53L135.45-4.53L135.45-4.53Q135.41-3.75 135.40-2.65L135.40-2.65L135.40-2.65Q135.39-1.55 135.39 0.03L135.39 0.03L135.39 0.03Q135.39 0.71 135.39 1.48L135.39 1.48L135.39 1.48Q135.39 2.25 135.40 3.03L135.40 3.03L135.40 3.03Q135.41 3.81 135.42 4.52L135.42 4.52L135.42 4.52Q135.42 5.24 135.43 5.80L135.43 5.80L135.43 5.80Q135.44 6.36 135.44 6.71L135.44 6.71L135.44 6.71Q135.44 7.06 135.44 7.08L135.44 7.08L135.44 7.08Q135.69 7.17 135.98 7.20L135.98 7.20L135.98 7.20Q136.26 7.24 136.54 7.24L136.54 7.24L136.54 7.24Q136.82 7.24 137.07 7.22L137.07 7.22L137.07 7.22Q137.33 7.20 137.49 7.18L137.49 7.18L137.49 7.18Q137.33 7.38 137.05 7.51L137.05 7.51L137.05 7.51Q136.78 7.64 136.48 7.74L136.48 7.74L136.48 7.74Q136.18 7.84 135.89 7.90L135.89 7.90L135.89 7.90Q135.60 7.97 135.39 8.02L135.39 8.02L135.39 8.02Q135.42 8.54 135.38 9.06L135.38 9.06L135.38 9.06Q135.34 9.59 135.34 10.08L135.34 10.08L135.34 10.08Q135.34 10.57 135.42 11.00L135.42 11.00L135.42 11.00Q135.51 11.44 135.77 11.77L135.77 11.77L135.77 11.77Q136.02 12.11 136.51 12.33L136.51 12.33L136.51 12.33Q136.99 12.54 137.79 12.59L137.79 12.59L137.79 12.59Q137.58 12.77 137.35 13.01L137.35 13.01L137.35 13.01Q137.12 13.24 136.86 13.45L136.86 13.45L136.86 13.45Q136.61 13.66 136.35 13.81L136.35 13.81L136.35 13.81Q136.08 13.96 135.80 13.96L135.80 13.96L135.80 13.96Q135.51 13.96 135.21 13.84L135.21 13.84L135.21 13.84Q134.92 13.72 134.69 13.48L134.69 13.48L134.69 13.48Q134.46 13.24 134.30 12.91L134.30 12.91L134.30 12.91Q134.15 12.57 134.13 12.12L134.13 12.12L134.13 12.12Q134.09 10.99 134.06 9.93L134.06 9.93L134.06 9.93Q134.04 8.86 134.04 7.98L134.04 7.98L134.04 7.98Q133.67 7.95 133.43 7.92L133.43 7.92L133.43 7.92Q133.18 7.90 133.03 7.87L133.03 7.87L133.03 7.87Q132.85 7.83 132.72 7.78L132.72 7.78L132.72 7.78Q132.90 7.71 133.11 7.62L133.11 7.62L133.11 7.62Q133.29 7.53 133.50 7.41L133.50 7.41L133.50 7.41Q133.71 7.29 133.92 7.13L133.92 7.13L133.92 7.13Q133.94 7.07 133.95 6.71L133.95 6.71L133.95 6.71Q133.95 6.36 133.96 5.79L133.96 5.79L133.96 5.79Q133.97 5.22 133.97 4.50L133.97 4.50L133.97 4.50Q133.98 3.78 133.98 3.00L133.98 3.00L133.98 3.00Q133.98 2.23 133.98 1.45L133.98 1.45L133.98 1.45Q133.98 0.67 133.98-0.03Z"></path></g><!----><g data-v-423bf9ae="" id="60f06d2e-2040-4b92-a607-fc26d3a89c53" transform="matrix(1.1111134847005208,0,0,1.1111134847005208,53.50945550208756,0.4442303977867894)" stroke="none" fill="white"><path d="M0 66.828v4.428C1.098 78.679 25.121 100 30.618 100h38.647c5.496 0 29.52-21.321 30.617-28.745v-4.428H0zM71.614 43.042c.178-.138 4.363-3.416 4.585-7.457a1.25 1.25 0 0 0-2.496-.138c-.159 2.894-3.585 5.59-3.619 5.617.068-.054.142-.099.221-.137l-.22.136a1.25 1.25 0 0 0 1.529 1.979zM73.628 59.742c-1.531-.398-4.713-.451-5.791 2.199a1.25 1.25 0 0 0 2.317.941c.522-1.285 2.822-.727 2.846-.721a1.25 1.25 0 1 0 .628-2.419zM97.637 54.542c-4.474 2.049-9.854 7.622-7.916 8.641 1.937 1.019 4.706-.634 7.666-2.979 2.96-2.346 3.582-7.19.25-5.662zM61.918 38.932c-1.984.083-4.756.5-5.922 3.162l-.179.4c-.428.95-.87 1.933-.446 2.971.418 1.026 1.509 1.563 2.412 1.917 2.985 1.168 6.558.515 8.132-1.489.867-1.103.915-2.818.121-4.369-.854-1.67-2.432-2.662-4.118-2.592zm2.032 5.415c-.785 1-3.138 1.535-5.257.706-.858-.336-1.015-.549-1.021-.558.013.018.026.06.026.082-.004-.166.229-.681.397-1.057l.189-.424c.333-.76 1.038-1.554 3.735-1.666 1.052-.044 1.635.932 1.789 1.232.364.706.357 1.411.142 1.685zM45.879 40.212c-2.1-.233-3.716 1.188-5.191 2.664-.718.718-1.805 1.804-1.741 3.219.043.942.568 1.821 1.605 2.685l.433.365c1.905 1.614 3.228 2.514 6.265.742 2.726-1.59 2.892-2.827 2.829-4.401a12.458 12.458 0 0 1-.014-.52c0-2.211-2.61-4.578-4.186-4.754zm1.686 4.754c0 .227.008.436.016.62.038.935.048 1.186-1.59 2.142-1.665.971-1.828.833-3.389-.49l-.448-.378c-.513-.427-.702-.74-.708-.877-.014-.313.731-1.058 1.011-1.338 1.275-1.276 2.247-2.047 3.148-1.947a.112.112 0 0 1-.02-.003c.544.119 1.98 1.457 1.98 2.271zM56.561 53.749c-2.514-1.143-8.519-3.468-9.985-.387-.312.652-.946 1.363-1.505 1.991-.972 1.09-1.891 2.119-1.584 3.334.178.704.714 1.224 1.596 1.544 2.937 1.067 6.611 2.107 8.979.66 1.943-1.187 2.591-3.593 2.939-4.885.06-.222.134-.497.168-.579.264-.623.008-1.398-.608-1.678zm-3.802 5.009c-1.567.957-5.169-.279-6.616-.802.218-.291.543-.66.793-.939.667-.748 1.421-1.596 1.887-2.563.468-.384 2.977.054 5.699 1.143-.284 1.033-.751 2.543-1.763 3.161zm40.517-12.027c-.113-2.714-.481-3.339-1.594-4.566l-.152-.169c-.955-1.061-2.239-1.506-3.617-1.254-2.114.387-3.903 2.264-4.513 3.833-.162.416-.369.821-.569 1.212-.708 1.388-1.59 3.115-.028 5.157 2.014 2.633 4.144 2.804 7.122.571.692-.52 1.203-.82 1.614-1.062 1.553-.915 1.829-1.507 1.737-3.722zM53.9 29.78c-1.739-.263-5.884-.635-6.811 1.589-.745 1.788-.512 5.102-.483 5.473a1.25 1.25 0 0 0 1.068 1.14c.56.081 5.534.75 7.9-.432 1.425-.713 2.113-2.375 1.756-4.234-.38-1.975-1.791-3.4-3.43-3.536zM12.602 38.844l.034-.005c-.534-3.589-.841-5.708-1.377-8.776C8.242 12.813 5.494-.235 3.57.003c-.01 0-.018 0-.023.003l-.015.001-.015.003-.023.004C1.574.28 3.063 15.05 5.883 32c.511 3.074.816 4.243 1.438 7.875 0 0-5.53 4.177-4.374 9.492.861 3.958 5.42 14.332 5.897 14.928-1.103-6.002-1.398-13.729.102-13.729 1-.25 3.438 8 4.875 13.063 0 0-.313-13.813.875-13.875 1.517-.08 2.989 7.23 3.477 13.313.307-.7 2.024-11.899 1.832-15.946-.26-5.433-7.403-8.277-7.403-8.277z"></path><path d="M83.373 56.922c-.315-.737-1.683-2.813-6.615-1.704.046-1.517-.463-2.974-1.506-4.083-1.335-1.42-3.201-1.956-4.87-1.399-1.011.337-2.653 1.342-3.415 4.284-1.672-.634-3.307-.628-4.577.064-1.169.638-1.877 1.803-1.895 3.115-.025 1.972 1.443 3.963 4.03 5.462a1.248 1.248 0 0 0 1.708-.454 1.248 1.248 0 0 0-.454-1.708c-2.068-1.199-2.794-2.474-2.784-3.267.007-.525.325-.808.592-.953.672-.366 1.982-.387 3.646.654.364.229.82.253 1.207.065.388-.187.651-.56.698-.987.236-2.129.978-3.553 2.034-3.904.723-.241 1.608.049 2.258.739.887.944 1.092 2.311.549 3.656a1.248 1.248 0 0 0 1.559 1.652c3.688-1.245 5.347-.692 5.537-.249.213.496-.568 2.099-3.336 3.555a1.25 1.25 0 1 0 1.164 2.212c3.594-1.889 5.39-4.603 4.47-6.75zm-46.892-.776c1.012-1.692 1.121-3.712.675-5.244-.505-1.736-1.662-2.902-3.094-3.118-.93-.14-2.246.08-3.703 1.567-.794-1.249-1.797-2.044-2.898-2.234-1.053-.182-2.059.205-2.759 1.062-1.244 1.521-1.286 4.226-.113 7.235a1.25 1.25 0 0 0 2.329-.908c-1.06-2.719-.675-4.262-.28-4.745.156-.191.283-.199.397-.18.394.068 1.234.674 1.892 2.514a1.252 1.252 0 0 0 2.221.266c1.1-1.668 2.034-2.181 2.542-2.104.429.064.848.592 1.066 1.344.363 1.246.153 3.005-1.133 4.123a1.252 1.252 0 0 0 .421 2.128c2.981 1.008 3.832 2.374 3.676 3.047-.163.704-1.434 1.311-3.469 1.048a1.25 1.25 0 1 0-.32 2.478c3.716.48 5.804-1.142 6.226-2.963.374-1.628-.459-3.767-3.676-5.316z"></path><path d="M32.489 58.288c-.138-.196-1.4-1.92-3.115-2.129-.814-.1-1.591.147-2.246.715a1.25 1.25 0 0 0 1.636 1.891c.163-.141.249-.131.306-.124.424.05 1.074.667 1.38 1.093l-.003-.004a1.251 1.251 0 0 0 2.042-1.442z"></path></g><!----></svg>