<svg data-v-fde0c5aa="" xmlns="http://www.w3.org/2000/svg" viewBox="0 0 300 300" class="icon"><!----><defs data-v-fde0c5aa=""><!----></defs><rect data-v-fde0c5aa="" fill="#423833" x="0" y="0" width="300px" height="300px" class="logo-background-square"></rect><!----><defs data-v-fde0c5aa=""><!----></defs><g data-v-fde0c5aa="" id="81683c94-3360-4f90-803e-5c3ffa89833d" fill="#D1793F" stroke="none" transform="matrix(2.1999953003030086,0,0,2.1999953003030086,40.12919131337304,40.00046157738309)"><path d="M0 66.828v4.428C1.098 78.679 25.121 100 30.618 100h38.647c5.496 0 29.52-21.321 30.617-28.745v-4.428H0zM71.614 43.042c.178-.138 4.363-3.416 4.585-7.457a1.25 1.25 0 0 0-2.496-.138c-.159 2.894-3.585 5.59-3.619 5.617.068-.054.142-.099.221-.137l-.22.136a1.25 1.25 0 0 0 1.529 1.979zM73.628 59.742c-1.531-.398-4.713-.451-5.791 2.199a1.25 1.25 0 0 0 2.317.941c.522-1.285 2.822-.727 2.846-.721a1.25 1.25 0 1 0 .628-2.419zM97.637 54.542c-4.474 2.049-9.854 7.622-7.916 8.641 1.937 1.019 4.706-.634 7.666-2.979 2.96-2.346 3.582-7.19.25-5.662zM61.918 38.932c-1.984.083-4.756.5-5.922 3.162l-.179.4c-.428.95-.87 1.933-.446 2.971.418 1.026 1.509 1.563 2.412 1.917 2.985 1.168 6.558.515 8.132-1.489.867-1.103.915-2.818.121-4.369-.854-1.67-2.432-2.662-4.118-2.592zm2.032 5.415c-.785 1-3.138 1.535-5.257.706-.858-.336-1.015-.549-1.021-.558.013.018.026.06.026.082-.004-.166.229-.681.397-1.057l.189-.424c.333-.76 1.038-1.554 3.735-1.666 1.052-.044 1.635.932 1.789 1.232.364.706.357 1.411.142 1.685zM45.879 40.212c-2.1-.233-3.716 1.188-5.191 2.664-.718.718-1.805 1.804-1.741 3.219.043.942.568 1.821 1.605 2.685l.433.365c1.905 1.614 3.228 2.514 6.265.742 2.726-1.59 2.892-2.827 2.829-4.401a12.458 12.458 0 0 1-.014-.52c0-2.211-2.61-4.578-4.186-4.754zm1.686 4.754c0 .227.008.436.016.62.038.935.048 1.186-1.59 2.142-1.665.971-1.828.833-3.389-.49l-.448-.378c-.513-.427-.702-.74-.708-.877-.014-.313.731-1.058 1.011-1.338 1.275-1.276 2.247-2.047 3.148-1.947a.112.112 0 0 1-.02-.003c.544.119 1.98 1.457 1.98 2.271zM56.561 53.749c-2.514-1.143-8.519-3.468-9.985-.387-.312.652-.946 1.363-1.505 1.991-.972 1.09-1.891 2.119-1.584 3.334.178.704.714 1.224 1.596 1.544 2.937 1.067 6.611 2.107 8.979.66 1.943-1.187 2.591-3.593 2.939-4.885.06-.222.134-.497.168-.579.264-.623.008-1.398-.608-1.678zm-3.802 5.009c-1.567.957-5.169-.279-6.616-.802.218-.291.543-.66.793-.939.667-.748 1.421-1.596 1.887-2.563.468-.384 2.977.054 5.699 1.143-.284 1.033-.751 2.543-1.763 3.161zm40.517-12.027c-.113-2.714-.481-3.339-1.594-4.566l-.152-.169c-.955-1.061-2.239-1.506-3.617-1.254-2.114.387-3.903 2.264-4.513 3.833-.162.416-.369.821-.569 1.212-.708 1.388-1.59 3.115-.028 5.157 2.014 2.633 4.144 2.804 7.122.571.692-.52 1.203-.82 1.614-1.062 1.553-.915 1.829-1.507 1.737-3.722zM53.9 29.78c-1.739-.263-5.884-.635-6.811 1.589-.745 1.788-.512 5.102-.483 5.473a1.25 1.25 0 0 0 1.068 1.14c.56.081 5.534.75 7.9-.432 1.425-.713 2.113-2.375 1.756-4.234-.38-1.975-1.791-3.4-3.43-3.536zM12.602 38.844l.034-.005c-.534-3.589-.841-5.708-1.377-8.776C8.242 12.813 5.494-.235 3.57.003c-.01 0-.018 0-.023.003l-.015.001-.015.003-.023.004C1.574.28 3.063 15.05 5.883 32c.511 3.074.816 4.243 1.438 7.875 0 0-5.53 4.177-4.374 9.492.861 3.958 5.42 14.332 5.897 14.928-1.103-6.002-1.398-13.729.102-13.729 1-.25 3.438 8 4.875 13.063 0 0-.313-13.813.875-13.875 1.517-.08 2.989 7.23 3.477 13.313.307-.7 2.024-11.899 1.832-15.946-.26-5.433-7.403-8.277-7.403-8.277z"></path><path d="M83.373 56.922c-.315-.737-1.683-2.813-6.615-1.704.046-1.517-.463-2.974-1.506-4.083-1.335-1.42-3.201-1.956-4.87-1.399-1.011.337-2.653 1.342-3.415 4.284-1.672-.634-3.307-.628-4.577.064-1.169.638-1.877 1.803-1.895 3.115-.025 1.972 1.443 3.963 4.03 5.462a1.248 1.248 0 0 0 1.708-.454 1.248 1.248 0 0 0-.454-1.708c-2.068-1.199-2.794-2.474-2.784-3.267.007-.525.325-.808.592-.953.672-.366 1.982-.387 3.646.654.364.229.82.253 1.207.065.388-.187.651-.56.698-.987.236-2.129.978-3.553 2.034-3.904.723-.241 1.608.049 2.258.739.887.944 1.092 2.311.549 3.656a1.248 1.248 0 0 0 1.559 1.652c3.688-1.245 5.347-.692 5.537-.249.213.496-.568 2.099-3.336 3.555a1.25 1.25 0 1 0 1.164 2.212c3.594-1.889 5.39-4.603 4.47-6.75zm-46.892-.776c1.012-1.692 1.121-3.712.675-5.244-.505-1.736-1.662-2.902-3.094-3.118-.93-.14-2.246.08-3.703 1.567-.794-1.249-1.797-2.044-2.898-2.234-1.053-.182-2.059.205-2.759 1.062-1.244 1.521-1.286 4.226-.113 7.235a1.25 1.25 0 0 0 2.329-.908c-1.06-2.719-.675-4.262-.28-4.745.156-.191.283-.199.397-.18.394.068 1.234.674 1.892 2.514a1.252 1.252 0 0 0 2.221.266c1.1-1.668 2.034-2.181 2.542-2.104.429.064.848.592 1.066 1.344.363 1.246.153 3.005-1.133 4.123a1.252 1.252 0 0 0 .421 2.128c2.981 1.008 3.832 2.374 3.676 3.047-.163.704-1.434 1.311-3.469 1.048a1.25 1.25 0 1 0-.32 2.478c3.716.48 5.804-1.142 6.226-2.963.374-1.628-.459-3.767-3.676-5.316z"></path><path d="M32.489 58.288c-.138-.196-1.4-1.92-3.115-2.129-.814-.1-1.591.147-2.246.715a1.25 1.25 0 0 0 1.636 1.891c.163-.141.249-.131.306-.124.424.05 1.074.667 1.38 1.093l-.003-.004a1.251 1.251 0 0 0 2.042-1.442z"></path></g><!----></svg>